<?xml version="1.0" encoding="utf-8"?>
<!-- Generator: Adobe Illustrator 25.0.1, SVG Export Plug-In . SVG Version: 6.00 Build 0)  -->
<svg version="1.1" id="Layer_1" xmlns="http://www.w3.org/2000/svg" xmlns:xlink="http://www.w3.org/1999/xlink" x="0px" y="0px"
	 viewBox="0 0 99.1 49.3" style="enable-background:new 0 0 99.1 49.3;" xml:space="preserve">
<style type="text/css">
	.st0{fill:#96AAAD;}
	.st1{fill:#89A3A9;}
	.st2{fill:#A6CE39;}
</style>
<g>
	<g>
		<path class="st0" d="M1.2,7.5H5c3.7,0,5.5,1.5,5.5,4.2c0,1.9-1,3.1-2.9,3.8l3.8,6.9H9.1l-3.5-6.5H3.3v6.5H1.1V7.5H1.2z M3.4,14
			h1.5c2.5,0,3.7-0.8,3.7-2.4S7.4,9.2,4.9,9.2H3.4V14z"/>
		<path class="st0" d="M20.6,7.1c3.1,0,4.9,2.6,4.9,7.7s-1.8,7.8-4.9,7.8s-4.9-2.6-4.9-7.8S17.5,7.1,20.6,7.1z M20.6,20.8
			c2,0,2.8-1.9,2.8-5.9s-0.8-5.9-2.8-5.9s-2.8,1.9-2.8,5.9C17.7,18.9,18.6,20.8,20.6,20.8z"/>
		<path class="st0" d="M35.3,7.1c3.1,0,4.9,2.6,4.9,7.7s-1.8,7.8-4.9,7.8c-3.1,0-4.9-2.6-4.9-7.8S32.1,7.1,35.3,7.1z M35.3,20.8
			c2,0,2.8-1.9,2.8-5.9s-0.8-5.9-2.8-5.9s-2.8,1.9-2.8,5.9C32.5,18.9,33.2,20.8,35.3,20.8z"/>
		<path class="st0" d="M45.7,7.5h9.1v1.8h-7.1V14h5v1.8h-5v6.5h-2.1V7.5H45.7z"/>
		<path class="st0" d="M63,9.3h-4.3V7.5h10.7v1.8h-4.3v13H63C63,22.3,63,9.3,63,9.3z"/>
		<path class="st0" d="M78.1,7.1c3.1,0,4.9,2.6,4.9,7.7s-1.8,7.8-4.9,7.8c-3.1,0-4.9-2.6-4.9-7.8S74.9,7.1,78.1,7.1z M78.1,20.8
			c2,0,2.8-1.9,2.8-5.9s-0.8-5.9-2.8-5.9c-2,0-2.8,1.9-2.8,5.9S76.1,20.8,78.1,20.8z"/>
		<path class="st0" d="M88.7,7.5h3.8c3.7,0,5.5,1.5,5.5,4.4s-2,4.4-5.5,4.4h-1.6v5.9h-2.1V7.5z M90.8,14.6h1.5
			c2.5,0,3.7-0.8,3.7-2.6s-1.1-2.6-3.7-2.6h-1.5V14.6z"/>
	</g>
	<g>
		<path class="st0" d="M9.8,28.4h3.5c4.3,0,6.7,2.5,6.7,7.3s-2.3,7.4-6.7,7.4H9.8C9.8,43.2,9.8,28.4,9.8,28.4z M13,41.4
			c3.3,0,4.7-1.6,4.7-5.5c0-3.9-1.4-5.5-4.7-5.5h-1.1v11.1H13z"/>
		<path class="st0" d="M25.3,28.4h9.2v1.9h-7.1v4.2h5.2v1.8h-5.2v5h7.3v1.9h-9.4V28.4z"/>
		<path class="st0" d="M41.4,39c0.9,1.8,1.9,2.6,3.3,2.6c1.5,0,2.5-0.9,2.5-2.4c0-0.6-0.3-1.1-0.6-1.6c-0.8-0.8-1.9-1.1-2.9-1.6
			c-1-0.5-2-0.9-2.8-1.9c-0.5-0.6-0.8-1.4-0.8-2.3c0-2.4,1.8-4,4.3-4c2,0,3.5,1,4.7,3.1l-1.6,1c-0.8-1.6-1.6-2.4-2.9-2.4
			c-1.4,0-2.1,0.8-2.1,1.9c0,0.4,0.1,0.9,0.4,1.1c0.6,0.8,1.6,1.1,2.8,1.6c2.5,1.3,3.8,2.4,3.8,4.7c0,2.5-1.9,4.3-4.7,4.3
			c-2.4,0-4-1.1-5-3.4L41.4,39z"/>
		<path class="st0" d="M54.1,41.8h1.3v-12h-1.3v-1.4h4.7v1.4h-1.3v12h1.3v1.4h-4.7V41.8z"/>
		<path class="st0" d="M72.8,43.4L72,41.9h-0.4c-0.9,1.1-1.9,1.6-3.1,1.6c-3,0-4.9-2.8-4.9-7.8c0-4.9,2-7.7,5.3-7.7
			c2,0,3.5,1.3,4.2,3.5l-2,0.5c-0.4-1.4-1.3-2.1-2.4-2.1c-2,0-3,1.9-3,5.8s1,5.9,3,5.9c1.5,0,2.9-1.4,2.9-3.4v-0.1h-2.8v-1.8h4.8
			v7.1C73.5,43.4,72.8,43.4,72.8,43.4z"/>
		<path class="st0" d="M79.5,28.4h2.8l3.4,7.7c0.8,1.5,1.4,3.1,2,4.9h0.1V28.6h1.8v14.7h-2.8L83.1,35c-0.6-1.5-1.3-3-1.8-4.5h-0.1
			v12.7h-1.8V28.4z"/>
	</g>
</g>
<rect x="-33.5" y="-20" class="st1" width="12.5" height="12.5"/>
<rect x="-33.5" y="-37.8" class="st2" width="12.5" height="12.5"/>
<text transform="matrix(1 0 0 1 -17.5128 -10.2849)" style="font-family:'MyriadPro-Regular'; font-size:12px;">89A3A9</text>
<text transform="matrix(1 0 0 1 -18.7628 -28.0349)" style="font-family:'MyriadPro-Regular'; font-size:12px;">A6CE39</text>
</svg>
